<?xml version="1.0" encoding="UTF-8" standalone="no"?>
<!-- Created with Inkscape (http://www.inkscape.org/) -->

<svg
   width="500"
   height="200"
   viewBox="0 0 132.29167 52.916666"
   version="1.1"
   id="svg1"
   xmlns="http://www.w3.org/2000/svg"
   xmlns:svg="http://www.w3.org/2000/svg">
  <defs
     id="defs1" />
  <g
     id="layer1"
     style="display:inline"
     transform="matrix(0.26221728,0,0,0.26221728,0.55771523,1.7521741)">
    <g
       id="text6"
       style="font-size:80.7219px;display:inline;stroke-width:0.264583"
       aria-label="ModernWalk">
      <path
         style="font-family:AppleGothic;-inkscape-font-specification:AppleGothic"
         d="M 20.35077,121.89713 V 58.611163 h 8.314356 L 53.204584,110.99968 78.551261,58.611163 h 7.830024 V 121.89713 H 80.65003 V 66.925518 L 54.576856,121.89713 H 51.832312 L 26.162747,67.00624 v 54.89089 z m 93.71807,1.04939 q -8.31435,0 -14.610661,-6.05414 -6.699918,-6.37704 -6.699918,-16.54799 0,-9.605911 5.892699,-16.063663 6.05414,-6.538474 14.93355,-6.538474 8.79869,0 14.85283,6.538474 5.97342,6.457752 5.97342,15.982933 0,10.00952 -6.45775,16.54799 -5.97342,6.13487 -13.88417,6.13487 z m -0.56505,-5.32765 q 5.81198,0 10.3324,-4.84331 4.35899,-4.92404 4.35899,-12.5119 0,-7.830021 -4.68187,-12.754057 -4.27827,-4.520426 -9.9288,-4.520426 -5.81198,0 -9.92879,4.68187 -4.520429,5.166202 -4.520429,12.673343 0,7.58785 4.439709,12.67333 4.11681,4.60115 9.92879,4.60115 z m 57.63545,-59.007707 h 6.21559 v 63.285967 h -5.56981 l -0.56506,-7.0228 q -1.1301,1.61444 -2.26021,2.90599 -1.13011,1.21082 -2.26021,2.09877 -4.0361,3.06743 -9.36374,3.06743 -8.31436,0 -13.80345,-6.45775 -5.40837,-6.45776 -5.40837,-15.66005 0,-9.525188 5.73126,-16.225105 5.81198,-6.861362 14.52994,-6.861362 3.63249,0 6.78064,1.29155 1.13011,0.484332 2.5831,1.291551 1.53372,0.807219 3.39032,1.937326 z m 0,42.378997 V 88.558988 q -3.79393,-3.309598 -6.61919,-4.439705 -2.82527,-1.130106 -5.48909,-1.130106 -6.6192,0 -10.73602,5.569811 -3.87465,5.246923 -3.87465,12.189002 0,7.42642 4.27826,12.35046 3.95538,4.52042 9.36374,4.52042 5.32765,0 9.2023,-4.68187 3.87465,-4.68187 3.87465,-11.94684 z m 51.33921,-2.421656 h -32.85382 q 0,9.283016 4.27827,14.207056 4.35898,4.84331 11.38178,4.84331 5.32765,0 10.25169,-3.39032 1.37227,-0.88794 2.90598,-2.17949 1.53372,-1.37227 3.3096,-3.14815 v 7.0228 q -1.93732,1.453 -3.63248,2.5831 -1.61444,1.04939 -3.06744,1.77588 -5.08548,2.66383 -10.17096,2.66383 -8.79868,0 -14.93355,-6.05414 -6.61919,-6.37704 -6.61919,-16.54799 0,-9.605911 5.97342,-16.063663 6.05414,-6.538474 14.93355,-6.538474 8.63724,0 13.72272,6.296308 4.52043,5.731255 4.52043,14.529943 z m -32.0466,-4.924036 h 25.26596 q -0.96866,-5.48909 -4.19754,-8.152912 -3.14815,-2.744545 -7.66858,-2.744545 -5.00476,0 -8.4758,3.148154 -3.22888,2.905988 -4.92404,7.749303 z m 61.59079,-14.933552 v 5.811977 q -0.88794,-0.322888 -1.45299,-0.484332 -0.56506,-0.242165 -0.96867,-0.322887 -0.40361,-0.08072 -0.88794,-0.08072 -0.40361,-0.08072 -1.1301,-0.08072 -5.8927,0 -9.68663,5.731255 -3.22888,5.246923 -3.22888,11.704671 v 20.90697 h -5.81198 V 78.710916 h 5.32765 l 0.40361,7.426415 q 2.01805,-3.39032 3.79393,-4.843314 3.63248,-2.986711 8.71796,-2.986711 1.37228,0 2.50238,0.08072 1.21083,0.08072 2.42166,0.322888 z m 42.78255,14.287776 v 28.898438 h -5.81198 V 93.402302 q 0,-4.520427 -3.3096,-7.426415 -3.3096,-2.98671 -7.91075,-2.98671 -6.13486,0 -10.57456,5.085479 -4.43971,5.166202 -4.43971,11.623954 v 22.19852 H 257.2695 V 78.710916 h 5.08548 l 0.24217,8.07219 q 2.17949,-3.309598 5.08548,-5.489089 4.76259,-3.551764 10.73601,-3.551764 6.94208,0 11.62395,4.197539 4.7626,4.116817 4.7626,11.0589 z"
         id="path2" />
      <path
         style="font-family:AppleGothic;-inkscape-font-specification:AppleGothic;fill:#808080"
         d="m 373.99339,58.611163 h 6.29631 L 361.72366,121.89713 H 355.5888 L 339.92875,66.764075 324.83376,121.89713 h -6.13487 L 299.64852,58.611163 h 6.6192 l 15.57933,53.841507 14.93355,-53.841507 h 6.13486 l 15.74077,53.841507 z m 44.55854,35.356192 v 20.341915 q 0,1.37228 0.56505,2.42166 0.64578,0.96866 2.26022,0.96866 0.48433,0 0.80722,0 0.32288,-0.0807 0.64577,-0.16144 0.48433,-0.16144 0.80722,-0.32289 0.40361,-0.16144 0.64578,-0.24216 v 4.52042 q -1.453,0.48433 -2.90599,0.64578 -1.453,0.24216 -2.26022,0.24216 -4.11681,0 -5.40836,-2.17949 -1.04939,-1.37227 -1.04939,-5.8927 -1.04938,1.77589 -2.09877,3.14816 -1.04938,1.29155 -2.09877,2.17949 -4.19754,3.3096 -9.76735,3.3096 -5.8927,0 -10.25168,-3.47104 -4.52042,-3.71321 -4.52042,-9.44447 0,-7.18425 7.26497,-10.574566 2.66382,-1.29155 7.0228,-2.260213 4.43971,-0.968663 10.57457,-1.775882 l 3.87465,-0.403609 q 0,-5.650533 -2.90599,-8.798687 -2.82526,-3.228876 -8.39507,-3.228876 -2.09877,0 -4.19754,0.565053 -2.01805,0.484331 -4.11682,1.614438 -1.13011,0.645775 -2.50238,1.533716 -1.37227,0.887941 -2.98671,2.260213 v -6.619196 q 6.86136,-4.601148 14.77211,-4.601148 8.07219,0 12.43117,5.08548 3.79393,4.439704 3.79393,11.139622 z m -5.8927,8.475795 v -2.583096 l -2.74454,0.322886 q -10.09024,1.04939 -14.20706,2.82527 -5.48909,2.17949 -5.48909,7.10353 0,1.45299 0.64578,2.82526 0.64577,1.29155 1.77588,2.34094 1.13011,1.04938 2.74454,1.69516 1.69516,0.64577 3.71321,0.64577 5.48909,0 9.60591,-4.4397 3.95537,-4.52043 3.95537,-10.73602 z m 17.9203,-43.831987 h 5.81198 v 63.285967 h -5.81198 z m 13.48053,0 h 5.8927 v 39.150121 l 19.85759,-19.050368 h 8.23363 l -18.16243,16.790155 20.74553,26.396059 h -7.99147 l -17.11304,-22.521407 -5.56981,5.166197 v 17.35521 h -5.8927 z"
         id="path3" />
    </g>
    <path
       d="m 464.987,37.205245 h 9.60437 v 1.095375 h -4.17512 V 49.651245 H 469.178 V 38.30062 h -4.191 z m 10.79499,12.446 v -12.446 h 1.63512 l 4.826,10.302875 4.98475,-10.302875 h 1.53988 v 12.446 h -1.12713 V 38.84037 l -5.12762,10.810875 h -0.53975 l -5.04825,-10.795 v 10.795 z"
       id="text7"
       style="font-size:15.875px;font-family:AppleGothic;-inkscape-font-specification:AppleGothic;stroke-width:0.264583"
       aria-label="TM" />
    <path
       style="font-size:18.8351px;line-height:1;font-family:AppleGothic;-inkscape-font-specification:AppleGothic;letter-spacing:2.21985px;opacity:0.909794;fill:#808080;stroke-width:0.762726;stroke-linejoin:bevel"
       d="m 37.834274,137.2683 h 1.469138 l -4.332073,14.76672 h -1.431468 l -3.654009,-12.86437 -3.522164,12.86437 H 24.93223 L 20.487147,137.2683 h 1.544478 l 3.635174,12.56301 3.484494,-12.56301 h 1.431467 l 3.672845,12.56301 z m 10.0741,0 h 1.450303 l 5.499849,14.76672 h -1.732829 l -1.7705,-5.04781 h -5.61286 l -1.845839,5.04781 h -1.638654 z m 3.032451,8.41929 -2.279047,-6.64879 -2.467398,6.64879 z m 7.700862,-8.41929 h 1.487973 v 13.4671 h 7.289184 v 1.29962 h -8.777157 z m 12.428474,0 h 1.487973 v 7.38336 l 7.213844,-7.38336 h 1.977685 l -5.782376,5.82005 6.215583,8.94667 h -1.940015 l -5.462179,-7.81657 -2.222542,2.22254 v 5.59403 h -1.487973 z m 22.12585,0 h 1.7705 l 4.520424,6.79947 4.445085,-6.79947 h 1.84584 l -5.57519,8.09909 v 6.66763 h -1.469139 v -6.66763 z m 22.316889,15.01158 q -2.56157,0 -4.48275,-1.99653 -2.10953,-2.16603 -2.10953,-5.59402 0,-3.27731 1.97768,-5.53752 1.92118,-2.12837 4.5581,-2.12837 2.67458,0 4.59576,2.0907 1.97769,2.20371 1.97769,5.55635 0,3.4845 -2.1472,5.65053 -1.90235,1.95886 -4.36975,1.95886 z m -0.11301,-1.3938 q 2.0907,0 3.55984,-1.75167 1.48797,-1.78933 1.48797,-4.46392 0,-1.29962 -0.35787,-2.41089 -0.35787,-1.11127 -1.0736,-2.01535 -1.43147,-1.82701 -3.541,-1.82701 -2.09069,0 -3.541,1.82701 -1.43146,1.78933 -1.43146,4.46391 0,2.7876 1.5068,4.53926 1.41264,1.63866 3.39032,1.63866 z m 10.54499,-13.61778 h 1.46913 v 9.56823 q 0,1.97769 1.3938,3.07012 1.26195,0.97943 3.18313,0.97943 1.75167,0 2.97595,-0.96059 1.41263,-1.13011 1.41263,-3.08896 v -9.56823 h 1.56331 v 9.37988 q 0,2.59924 -1.84584,4.18139 -1.71399,1.45031 -4.04954,1.45031 -2.69342,0 -4.35091,-1.43147 -1.75166,-1.48798 -1.75166,-4.14372 z m 16.04482,0 h 4.87829 q 1.95885,0 3.23964,0.64039 1.78933,0.90409 1.78933,3.01362 0,1.4503 -0.80991,2.37322 -0.80991,0.92292 -2.59924,1.46914 0.3202,0.13185 0.56505,0.26369 0.24486,0.11301 0.39554,0.26369 0.65923,0.56506 1.03593,1.65749 l 1.88351,5.08548 h -1.67632 l -0.97943,-3.08896 q -0.77224,-2.31671 -1.61982,-3.03245 -0.73457,-0.67806 -2.42973,-0.67806 h -2.18487 v 6.79947 h -1.48797 z m 5.16082,1.29962 h -3.67285 v 5.49985 h 2.26021 q 1.35613,0 2.27905,-0.24485 0.94176,-0.2637 1.52565,-0.82875 0.39553,-0.35787 0.64039,-0.88525 0.26369,-0.52738 0.26369,-1.0736 0,-1.03593 -0.84758,-1.71399 -0.92292,-0.75341 -2.44856,-0.75341 z m 17.4359,-1.29962 h 9.19153 v 1.29962 h -7.70356 v 5.48102 h 7.38336 v 1.20544 h -7.38336 v 6.78064 h -1.48797 z m 18.32388,0 h 1.4503 l 5.49985,14.76672 h -1.73283 l -1.7705,-5.04781 h -5.61286 l -1.84584,5.04781 h -1.63865 z m 3.03245,8.41929 -2.27905,-6.64879 -2.46739,6.64879 z m 16.77937,-7.38336 v 1.90235 q -0.48971,-0.41438 -0.99826,-0.73457 -0.48971,-0.3202 -0.97943,-0.52739 -1.1301,-0.52738 -2.29788,-0.52738 -1.46914,0 -2.42973,0.73457 -0.97942,0.7534 -0.97942,1.78933 0,1.50681 2.22254,2.26022 1.03593,0.35786 2.05303,0.6969 1.03593,0.32019 2.09069,0.65922 2.24138,1.0736 2.24138,3.20197 0,2.07186 -1.60098,3.33381 -1.52565,1.18662 -3.78586,1.18662 -1.50681,0 -2.9006,-0.58389 -0.80991,-0.3202 -1.92118,-1.05477 v -1.92118 q 1.4503,1.29962 2.93827,1.82701 0.48971,0.18835 0.96059,0.26369 0.47088,0.0753 0.94176,0.0753 1.5068,0 2.54274,-0.75341 1.14894,-0.82874 1.14894,-2.16603 0,-1.61982 -2.18488,-2.4674 -1.05476,-0.3202 -2.07186,-0.65923 -1.01709,-0.33903 -2.03419,-0.65923 -2.2037,-1.01709 -2.2037,-3.12662 0,-1.7705 1.39379,-2.88177 1.43147,-1.14895 3.57867,-1.14895 1.31846,0 2.63692,0.48972 0.67806,0.22602 1.63865,0.79107 z m 5.10163,-1.03593 h 1.46914 v 6.4416 h 8.11793 v -6.4416 h 1.46913 v 14.76672 h -1.46913 v -7.082 h -8.11793 v 7.082 h -1.46914 z m 15.70576,0 h 1.46914 v 14.76672 h -1.46914 z m 12.3343,15.01158 q -2.56157,0 -4.48275,-1.99653 -2.10954,-2.16603 -2.10954,-5.59402 0,-3.27731 1.97769,-5.53752 1.92118,-2.12837 4.55809,-2.12837 2.67459,0 4.59577,2.0907 1.97768,2.20371 1.97768,5.55635 0,3.4845 -2.1472,5.65053 -1.90234,1.95886 -4.36974,1.95886 z m -0.11301,-1.3938 q 2.09069,0 3.55983,-1.75167 1.48798,-1.78933 1.48798,-4.46392 0,-1.29962 -0.35787,-2.41089 -0.35787,-1.11127 -1.0736,-2.01535 -1.43147,-1.82701 -3.541,-1.82701 -2.0907,0 -3.541,1.82701 -1.43147,1.78933 -1.43147,4.46391 0,2.7876 1.50681,4.53926 1.41263,1.63866 3.39032,1.63866 z m 10.54498,1.14894 V 137.2683 h 1.35613 l 9.07852,12.50651 V 137.2683 h 1.35612 v 14.76672 h -1.35612 l -9.07852,-12.48767 v 12.48767 z m 17.3256,2.76876 h -0.7534 q 0.33903,-0.71574 0.50855,-1.29962 0.16951,-0.56506 0.24485,-1.28079 -0.41437,-0.18835 -0.60272,-0.41437 -0.22602,-0.24486 -0.22602,-0.79108 0,-0.67806 0.30136,-1.09243 0.3202,-0.43321 0.75341,-0.43321 0.4332,0 0.67806,0.48971 0.24486,0.47088 0.24486,1.09244 0,0.54622 -0.11302,1.09243 -0.0942,0.56506 -0.30136,1.13011 -0.13184,0.3202 -0.32019,0.67806 -0.16952,0.37671 -0.41438,0.82875 z m 20.76974,-2.5239 q -2.56157,0 -4.48275,-1.99653 -2.10953,-2.16603 -2.10953,-5.59402 0,-3.27731 1.97768,-5.53752 1.92118,-2.12837 4.5581,-2.12837 2.67458,0 4.59576,2.0907 1.97769,2.20371 1.97769,5.55635 0,3.4845 -2.1472,5.65053 -1.90235,1.95886 -4.36975,1.95886 z m -0.11301,-1.3938 q 2.0907,0 3.55984,-1.75167 1.48797,-1.78933 1.48797,-4.46392 0,-1.29962 -0.35787,-2.41089 -0.35787,-1.11127 -1.0736,-2.01535 -1.43147,-1.82701 -3.541,-1.82701 -2.09069,0 -3.541,1.82701 -1.43146,1.78933 -1.43146,4.46391 0,2.7876 1.5068,4.53926 1.41264,1.63866 3.39032,1.63866 z m 27.15754,-13.61778 h 1.46914 l -4.33207,14.76672 h -1.43147 l -3.65401,-12.86437 -3.52216,12.86437 h -1.43147 l -4.44508,-14.76672 h 1.54447 l 3.63518,12.56301 3.48449,-12.56301 h 1.43147 l 3.67284,12.56301 z m 4.8756,14.76672 V 137.2683 h 1.35613 l 9.07852,12.50651 V 137.2683 h 1.35613 v 14.76672 h -1.35613 l -9.07852,-12.48767 v 12.48767 z m 23.53852,-14.76672 h 1.7705 l 4.52042,6.79947 4.44508,-6.79947 h 1.84584 l -5.57519,8.09909 v 6.66763 h -1.46913 v -6.66763 z m 22.31686,15.01158 q -2.56157,0 -4.48275,-1.99653 -2.10953,-2.16603 -2.10953,-5.59402 0,-3.27731 1.97769,-5.53752 1.92118,-2.12837 4.55809,-2.12837 2.67458,0 4.59576,2.0907 1.97769,2.20371 1.97769,5.55635 0,3.4845 -2.1472,5.65053 -1.90235,1.95886 -4.36975,1.95886 z m -0.11301,-1.3938 q 2.0907,0 3.55984,-1.75167 1.48797,-1.78933 1.48797,-4.46392 0,-1.29962 -0.35787,-2.41089 -0.35786,-1.11127 -1.0736,-2.01535 -1.43146,-1.82701 -3.541,-1.82701 -2.09069,0 -3.54099,1.82701 -1.43147,1.78933 -1.43147,4.46391 0,2.7876 1.50681,4.53926 1.41263,1.63866 3.39031,1.63866 z m 10.54499,-13.61778 h 1.46914 v 9.56823 q 0,1.97769 1.39379,3.07012 1.26195,0.97943 3.18313,0.97943 1.75167,0 2.97595,-0.96059 1.41263,-1.13011 1.41263,-3.08896 v -9.56823 h 1.56332 v 9.37988 q 0,2.59924 -1.84584,4.18139 -1.714,1.45031 -4.04955,1.45031 -2.69342,0 -4.35091,-1.43147 -1.75166,-1.48798 -1.75166,-4.14372 z m 16.04482,0 h 4.87829 q 1.95885,0 3.23964,0.64039 1.78933,0.90409 1.78933,3.01362 0,1.4503 -0.8099,2.37322 -0.80991,0.92292 -2.59925,1.46914 0.3202,0.13185 0.56505,0.26369 0.24486,0.11301 0.39554,0.26369 0.65923,0.56506 1.03593,1.65749 l 1.88351,5.08548 h -1.67632 l -0.97943,-3.08896 q -0.77224,-2.31671 -1.61982,-3.03245 -0.73456,-0.67806 -2.42972,-0.67806 h -2.18487 v 6.79947 h -1.48798 z m 5.16082,1.29962 h -3.67284 v 5.49985 h 2.26021 q 1.35612,0 2.27904,-0.24485 0.94176,-0.2637 1.52565,-0.82875 0.39553,-0.35787 0.64039,-0.88525 0.26369,-0.52738 0.26369,-1.0736 0,-1.03593 -0.84758,-1.71399 -0.92292,-0.75341 -2.44856,-0.75341 z m 26.4956,-0.26369 v 1.90235 q -0.48971,-0.41438 -0.99826,-0.73457 -0.48971,-0.3202 -0.97943,-0.52739 -1.1301,-0.52738 -2.29788,-0.52738 -1.46914,0 -2.42973,0.73457 -0.97942,0.7534 -0.97942,1.78933 0,1.50681 2.22254,2.26022 1.03593,0.35786 2.05303,0.6969 1.03593,0.32019 2.09069,0.65922 2.24138,1.0736 2.24138,3.20197 0,2.07186 -1.60098,3.33381 -1.52565,1.18662 -3.78586,1.18662 -1.50681,0 -2.90061,-0.58389 -0.8099,-0.3202 -1.92118,-1.05477 v -1.92118 q 1.45031,1.29962 2.93828,1.82701 0.48971,0.18835 0.96059,0.26369 0.47088,0.0753 0.94176,0.0753 1.5068,0 2.54273,-0.75341 1.14894,-0.82874 1.14894,-2.16603 0,-1.61982 -2.18487,-2.4674 -1.05476,-0.3202 -2.07186,-0.65923 -1.01709,-0.33903 -2.03419,-0.65923 -2.20371,-1.01709 -2.20371,-3.12662 0,-1.7705 1.3938,-2.88177 1.43147,-1.14895 3.57867,-1.14895 1.31846,0 2.63691,0.48972 0.67807,0.22602 1.63866,0.79107 z m 4.55539,-1.03593 h 11.39524 v 1.29962 h -4.95363 v 13.4671 h -1.46914 v -13.4671 h -4.97247 z m 14.51915,0 h 1.7705 l 4.52043,6.79947 4.44508,-6.79947 h 1.84584 l -5.57519,8.09909 v 6.66763 h -1.46914 v -6.66763 z m 15.95064,0 h 1.48797 v 13.4671 h 7.28919 v 1.29962 h -8.77716 z m 12.46617,-0.0188 h 9.19153 v 1.29962 h -7.70356 v 5.10431 h 7.42103 v 1.29962 h -7.42103 v 5.78238 h 7.76006 v 1.29962 h -9.24803 z"
       id="text2"
       aria-label="WALK YOUR FASHION, OWN YOUR STYLE" />
  </g>
</svg>
